<svg version="1.2" xmlns="http://www.w3.org/2000/svg" viewBox="0 0 800 800" width="800" height="800">
	<title>nostril</title>
	<style>
		.s0 { fill: #FFFFFF }
		.s1 { fill: #FFFFFF }
		.s2 { fill: #F9FAFB }
	</style>
	<g id="Layer 1">
		<path id="Path 0" fill-rule="evenodd" class="s0" d="m-258-121h1316v1053l-169.5-0.5-0.5-461.7c-0.3-253.9-0.7-461.9-1-462.2-0.3-0.3-7.5-2.4-16-4.6-8.5-2.2-21.6-5.1-29-6.5-7.4-1.3-19.6-3.4-27-4.5-7.4-1.2-19.6-2.7-27-3.5-7.4-0.8-20.5-1.7-29-2-8.5-0.3-17-0.8-18.8-1.1-2.9-0.4-3.6-1.2-7.9-9.7-2.5-5-6.1-11.6-11.3-19.7h-809v424.8c0 233.6 0.3 425.6 0.5 426.7 0.4 1.3 3.7 3.6 9.8 6.7 5 2.5 14.1 6.9 20.2 9.6 6.1 2.7 14.8 6.6 19.5 8.5 4.7 2 13.4 5.4 19.5 7.6 6.1 2.2 19.3 6.7 29.5 10 10.2 3.3 27.7 8.2 39 11 11.3 2.8 25.4 6 31.5 7 6.1 1.1 18.9 3.1 28.5 4.5 9.6 1.4 22.4 3 28.5 3.5 6.1 0.6 17.5 1.3 25.5 1.6 8 0.3 15.7 0.8 17.3 1 2.2 0.4 3.4 1.8 6.3 7.7 2 4 7.3 13.4 11.7 20.8 4.4 7.4 9.5 15.7 11.3 18.5 2.4 3.6 3 5.2 2.1 5.7-0.6 0.4-106.8 0.8-470.7 0.8zm809.5 1052.5c184.8 0 260.6 0.1 168.5 0.2-92.1 0.2-243.3 0.2-336 0-92.7-0.1-17.3-0.2 167.5-0.2z"/>
		<path id="Path 1" class="s1" d="m551 931.7c186.2 0.2 376.4 0.3 507 0.3v75h-1316v-75l235.3-0.3c129.3-0.1 387.5-0.1 573.7 0z"/>
		<path id="Path 2" class="s0" d="m-215.5 945c1.7 0 5.3 0.6 8 1.4 3.1 1 6.4 2.9 8.9 5.3 2.1 2.1 4.8 5.8 5.9 8.3 1.2 2.7 2 6.7 2 10 0 3-0.8 7.1-1.6 9-0.9 1.9-2.7 4.6-3.9 6-1.7 1.9-2.3 2.2-2.6 1-0.2-0.8 0.3-3.5 1.2-6 0.9-2.5 1.6-6.5 1.6-9 0-3-1-6.2-2.8-9.4-1.9-3.6-4-5.7-7.2-7.4-3.6-1.9-5.7-2.3-10.2-2q-5.6 0.3-8.5 2.4c-1.5 1.1-3.8 3.6-5.1 5.5-1.7 2.5-2.2 4.8-2.2 8.9 0 3.8 0.7 6.7 2.3 9.5 1.6 2.8 3.5 4.5 6.7 5.8 4.1 1.8 4.9 1.8 8.9 0.6 2.6-0.8 5.3-2.6 6.5-4.2 1.4-1.9 2.1-4.4 2.1-7.3 0-3.3-0.6-4.9-2.5-6.8-1.4-1.4-3.7-2.7-5.3-3-2.1-0.5-3.3 0-5.7 2.4-1.7 1.7-3 3.8-3 4.8-0.1 0.9 0.7 2.8 1.7 4.1 1.2 1.6 2.4 2.2 3.5 1.8 1.1-0.4 1.8-1.7 1.8-3.2 0-2 0.4-2.5 2.2-2.2 1.7 0.1 2.4 0.9 2.5 3 0.2 2-0.4 3.2-2.5 4.7-1.5 1.2-3.5 2.1-4.5 2-0.9 0-3-0.8-4.7-1.7-1.6-1-3.4-2.8-4-4-0.5-1.3-1-3.6-1-5.3 0-1.7 0.7-4.3 1.5-6 0.8-1.7 2.7-3.9 4.2-5 1.7-1.3 4.3-2.1 6.5-2 2.1 0 5.1 0.7 6.8 1.5 1.7 0.8 3.8 2.7 4.9 4.3 1 1.5 2.4 4.3 3 6.2 0.9 2.7 0.9 4.6 0 8-0.6 2.5-2.1 5.8-3.3 7.4-1.1 1.7-4.4 4-7.1 5.3-2.8 1.2-6.3 2.3-8 2.3-1.7 0-4.7-0.5-6.8-1-2-0.6-5.1-2.2-6.8-3.7-1.8-1.6-4.2-4.9-5.5-7.5-1.5-3-2.4-6.6-2.4-9.5 0-2.7 0.4-6.4 0.9-8.3 0.6-1.9 2.9-5.7 5.3-8.3 3.2-3.6 5.8-5.4 9.8-6.7 3-1.1 6.8-2 8.5-2zm57.9 7.3c0.7 0.2 1.2 4.9 1.6 24.7l-2.9 3c-1.8 1.8-4 3-5.5 3-1.4 0-3.7-0.5-5.1-1-1.4-0.5-3.2-2.3-4-4-0.8-1.7-1.5-4.2-1.5-5.7 0-1.6 0.9-4.3 2-6 1.1-1.8 2.8-3.7 3.7-4.2 1.1-0.5 2.8-0.5 4 0 1.4 0.6 2.1 1.5 1.8 2.4-0.3 0.8-1.5 1.7-2.8 2-1.2 0.3-2.8 1.7-3.5 3.2-1 2.1-1.1 3.4-0.3 5.1 0.6 1.2 2 2.7 3.1 3.2 1.6 0.8 2.5 0.5 4.5-1.5 2.3-2.3 2.5-3.2 2.3-10.2 0-4.3 0.3-9.3 0.7-11.1 0.5-1.8 1.3-3.1 1.9-2.9zm154.9-0.1c0.7 0.3 1.3 1.4 1.4 2.6 0.2 1.4-0.3 2.2-1.2 2.2-0.8 0-1.7-0.5-2-1-0.3-0.5-0.2-1.7 0.1-2.6 0.3-0.9 1.1-1.4 1.7-1.2zm-22.6 3.8c0.7 0 1.5 1.1 1.8 2.5 0.4 2.2 1 2.5 4.7 2.5 2.7-0.1 4.9 0.5 5.8 1.5 1 1 1.2 1.9 0.5 2.5-0.6 0.5-3 1-5.5 1.2-3.8 0.3-4.6 0.7-5.5 3.1-0.7 1.8-0.7 3.6 0 5.5 0.8 1.9 1.7 2.7 3.5 2.7 1.6 0 2.9-0.9 3.7-2.5 0.7-1.4 1.8-2.5 2.5-2.5 0.7 0 1.4 1.2 1.5 2.8 0.2 1.8-0.5 3.6-2.2 5.2-1.3 1.4-3.3 2.5-4.5 2.5-1.1 0-3.2-0.6-4.8-1.4-1.5-0.7-3-2.1-3.5-3-0.4-0.9-0.8-6-0.9-11.4-0.1-5.4 0.2-10.2 0.7-10.5 0.5-0.4 1.4-0.7 2.2-0.7zm-118.1 5c0.2 0 1.2 0.3 2.1 0.6 1 0.3 1.7 1.5 1.5 2.5-0.1 1-1.1 2.1-2.2 2.4q-2 0.5-2.5 3.8c-0.3 1.7-0.6 5.2-0.7 7.7-0.2 3.2-0.7 4.5-1.8 4.5-1.2 0-1.6-1.6-1.8-7.7-0.2-7.1 0-8.1 2.4-10.8 1.4-1.7 2.8-3 3-3zm20.4 0.1c0.3-0.1 1.7 0.7 3.2 1.9 1.6 1.1 2.8 2.5 2.8 3 0 0.5-1.2 2.6-2.8 4.5-1.5 2-3.5 3.6-4.5 3.5-0.9 0-1.7-0.6-1.7-1.2 0-0.7 0.7-2.3 1.5-3.5 0.9-1.4 1.1-2.5 0.5-2.8-0.6-0.3-1.9 0.3-3 1.3-1.3 1.1-2.1 2.9-2 5 0 2.2 0.7 3.7 2.2 4.7 1.3 0.8 4.2 1.5 6.5 1.5 2.4 0 4.6 0.5 5 1.3 0.3 0.6-0.3 1.8-1.3 2.4-1.2 0.8-3.5 1-6.4 0.7-2.5-0.4-5.5-1.3-6.8-2-1.3-0.8-2.6-3.1-3.3-5.6-0.7-2.9-0.7-5.3 0-7.3 0.6-1.7 1.8-3.7 2.8-4.7 1-0.9 2.9-1.8 4.3-2.1 1.4-0.2 2.7-0.5 3-0.6zm23.5-0.1c1.1 0 3.2 1 4.6 2.3 1.5 1.2 3.2 3.8 3.8 5.7 0.6 1.9 1.1 5.3 1.1 7.5 0 2.2-0.4 4.7-0.9 5.5-0.8 1.3-1.1 1.3-2.6 0-1.1-1.1-1.6-3.2-1.5-7.2 0-5.1-0.3-6-2.5-7.3-2.2-1.3-2.8-1.3-5 0-1.9 1.1-2.5 2.3-2.5 5 0 3 0.5 3.8 3.5 5.5 2.2 1.3 3.3 2.5 3 3.5-0.3 0.8-1.5 1.5-2.8 1.5-1.2 0-3.4-1.2-4.9-2.7-1.5-1.6-3-3.9-3.3-5.3-0.4-1.4-0.2-4.2 0.4-6.2 0.7-2.5 2.2-4.5 4.3-5.8 1.8-1.1 4.2-2 5.3-2zm24.4 0.5c1.4 0.4 3.7 0.7 5.1 0.7 1.4 0 3.6-0.3 5-0.7 1.9-0.5 3.2-0.1 5.5 1.8 2.9 2.4 3 2.8 3 10.8 0 7.2-0.2 8.4-1.8 8.6-1.5 0.3-1.7-0.5-1.7-5.7 0-3.3-0.4-6.9-1-8-0.6-1.2-2-2-3.5-2-1.4 0-2.5 0.3-2.5 0.8-0.1 0.4-0.3 3.6-0.6 7.2-0.3 3.6-1 7-1.5 7.5-0.5 0.5-1.2 0.6-1.6 0.2-0.5-0.5-0.9-3.2-0.9-6-0.1-2.9-0.4-6.2-0.8-7.4-0.4-1.6-1.4-2.3-3.1-2.3-1.4 0-2.8 0.6-3.2 1.3-0.3 0.6-0.9 4.1-1.2 7.6-0.4 3.9-1.1 6.6-1.9 6.8-0.7 0.2-1.5-1-1.8-2.9-0.3-1.8-0.3-5.8 0.1-8.8 0.6-3.9 1.5-6.2 3.2-7.9 1.9-1.8 3.1-2.1 5.2-1.6zm39-0.3c1.5 0.2 2.7 1 2.8 2.1q0.3 1.7-3.2 3.2c-3.3 1.4-3.5 1.7-3.5 6.5 0 4-0.5 5.5-2.5 7.5q-2.5 2.5-5.2 2.3c-1.5-0.2-2.9-1-3.1-1.8-0.2-0.9 1.1-2.1 3-3 3-1.4 3.4-2 4-7.4 0.5-4.2 1.3-6.4 2.9-7.8 1.3-1.1 3.3-1.8 4.8-1.6zm49.7-0.2c0.8 0 2.6 0.6 4 1.3 2 1 2.9 1 4.5 0 1-0.7 2.7-1.3 3.6-1.3 1-0.1 3 1.1 4.5 2.5 1.6 1.4 2.9 3.3 3 4.3 0 0.9 0.2 3 0.4 4.7 0.1 1.7 0 4.7-0.2 6.8q-0.4 3.7-1.9 3.7c-0.8 0-1.7-1-2-2.2-0.3-1.3-0.6-4.8-0.7-7.8-0.3-5-0.5-5.5-2.8-5.8-1.4-0.2-2.8 0.3-3.2 1-0.4 0.7-0.8 3.8-0.8 6.8 0 3-0.4 6.1-0.8 6.8-0.6 1.1-0.9 1.1-1.9 0-0.6-0.7-1.3-4-1.5-7.2-0.2-4.3-0.8-6.2-2.1-7-1.2-0.8-2.2-0.8-3.5 0-1.2 0.8-1.9 3.1-2.4 8-0.4 3.8-1 7.1-1.3 7.4-0.3 0.3-0.8 0.1-1.3-0.3-0.4-0.5-0.7-4.5-0.7-8.9 0-7.5 0.2-8.1 2.8-10.4 1.6-1.3 3.5-2.4 4.3-2.4zm35.6 0c1.3-0.1 3.5 0.8 5 2 1.6 1.1 2.8 2.7 2.8 3.5 0 0.8-1.7 3.1-3.8 5-2.6 2.5-4 3.2-4.7 2.5-0.7-0.7-0.4-2.1 0.7-4 1.7-2.9 1.7-3 0-3-1 0-2.3 0.6-3 1.3-0.7 0.6-1.2 2.7-1.2 4.5 0 2.2 0.7 3.7 2.2 4.7 1.3 0.8 3.3 1.5 4.5 1.5 1.3 0 2.6 0.6 2.9 1.3 0.3 0.6 0.2 1.5-0.2 2-0.5 0.4-3.2 0.4-5.9 0-4.6-0.7-5.2-1.2-6.9-4.8-1.4-2.9-1.7-4.9-1.1-7.5 0.4-1.9 2-4.7 3.5-6.2 1.6-1.6 3.9-2.8 5.2-2.8zm-51.7 1c1.1 0 1.4 1.9 1.4 9.3 0 5-0.4 9.9-0.9 10.7-0.5 0.8-1.3 1.1-1.7 0.7-0.4-0.5-1-4.1-1.2-8-0.2-4-0.1-8.4 0.3-9.9 0.3-1.6 1.3-2.8 2.1-2.8zm81.2 0c2.1 0 4.8 0.7 6 1.5 1.3 0.8 2.3 2.4 2.3 3.5 0 1.1-0.6 2.3-1.3 2.6-0.6 0.4-2.7-0.2-4.5-1.2-3.3-1.9-3.4-1.9-4.8 0.1-0.8 1.1-1.4 3.2-1.4 4.8 0 1.5 0.7 3.4 1.5 4.2 1 1 2.2 1.2 3.6 0.8 1.2-0.5 2.3-1.1 2.5-1.5 0.2-0.5 1.3-0.8 2.4-0.8q2 0 2 2c0 1.1-1 2.6-2.3 3.4-1.2 0.8-3.3 1.7-4.7 2.1-1.4 0.4-3.7 0.1-5.4-0.7-1.6-0.7-3.5-2.5-4.2-4-0.8-1.6-1.4-4.6-1.3-6.9 0-3 0.8-4.8 2.9-7 2.2-2.2 3.8-2.9 6.7-2.9zm22 0c3.8 0 4.7 0.5 7.4 3.8 2.8 3.3 3.1 4.2 2.6 8.2q-0.6 4.5-3.2 7c-2 1.9-3.6 2.5-7.1 2.5-3.9 0-5-0.5-7.5-3.2-2-2.3-2.9-4.3-2.9-6.8 0-1.9 0.7-4.8 1.6-6.5 1-1.6 2.4-3.4 3.3-3.9 0.9-0.6 3.5-1.1 5.8-1.1zm24.5 0.1c1.6 0 3.8 0.4 5 1 1.7 0.8 2.6 0.8 3.2 0 0.6-0.6 2.5-1.1 4.3-1.1 2 0 4.1 0.8 5.3 2 1.7 1.7 2 3.3 2 19l-2.8-0.2c-2.6-0.3-2.7-0.4-3-7.5-0.2-6.4-0.5-7.4-2.2-7.8-1.1-0.3-2.7 0.2-3.5 1-0.8 0.8-1.2 2.1-0.9 2.8 0.4 0.6 0.4 3.6 0 6.5-0.5 4.7-0.8 5.2-3.1 5.2-2.4 0-2.5-0.2-2.5-6.7 0.1-5-0.3-7.1-1.5-8-0.8-0.7-2.3-1.2-3.3-1-1.3 0.2-1.8 1.4-2 5.7-0.1 3-0.4 6.5-0.7 7.8-0.3 1.4-1.2 2.2-2.5 2.2-1.5 0-2.1-0.9-2.6-3.2-0.3-1.8-0.4-6.2 0.1-16.3l4-0.6c2.2-0.3 5.2-0.7 6.7-0.8zm782.9-0.1c0.5 0 1.1 0.9 1.4 2 0.3 1.1 1.3 2 2.3 2 0.9 0 2.3 0.5 3 1.2 0.7 0.7 1.2 2.4 1.2 3.8 0 1.4-0.5 3.1-1.2 3.8-0.7 0.6-2.6 1.2-4.2 1.2-2.8 0-3.2-0.3-3.7-3.7-0.4-2.1-0.4-5.3-0.2-7 0.3-1.8 0.9-3.3 1.4-3.3zm16.3 0.2c0.6 0.3 1.2 2 1.4 3.9 0.2 3.4 0.2 3.4 2.2 1.4 1.1-1.1 2.2-1.7 2.5-1.2 0.3 0.4 0 1.6-0.5 2.7-0.7 1.5-0.6 2.7 0.5 4.5 1.3 2.2 1.3 2.5 0 2.5-0.8 0-1.7-0.7-2-1.5-0.3-0.8-1-1.5-1.5-1.5-0.5 0-1 0.7-1 1.5 0 0.8-0.7 1.5-1.5 1.5-1.2 0-1.5-1.4-1.4-7.1 0.1-4.8 0.5-6.9 1.3-6.7zm55.8-0.2c1 0 1.8 0.5 1.8 1 0 0.5-0.5 1-1 1-0.5 0-0.9 0.8-0.8 1.8 0 0.9 0 3.6 0 6-0.1 2.6-0.7 4.2-1.4 4.2-0.8 0-1.5-2-1.9-5.2-0.4-3.1-0.2-6 0.4-7 0.6-1 1.9-1.8 2.9-1.8zm10.3 0c1.2 0 1.5 1.3 1 13.5l-3.7 0.3c-3.1 0.2-4-0.2-4.9-2-0.7-1.6-0.7-3.1 0-5 0.8-2 1.8-2.8 3.6-2.8 1.8 0 2.5-0.5 2.5-2 0-1.1 0.7-2 1.5-2zm23.2 0c0.7 0 1.5 0.5 1.8 1 0.3 0.5 0 1-0.5 1-0.5 0-0.8 0.3-0.6 0.8 0.3 0.4 0.2 2.9-0.2 5.6-0.4 2.7-1.2 5.1-1.7 5.3-0.5 0.2-1.3-2-1.6-4.9-0.4-3.1-0.2-6 0.4-7 0.6-1 1.7-1.8 2.4-1.8zm-285.7 1c0.6 0 1 2.9 1 6.5 0 4.7-0.3 6.4-1.2 6.2-0.8-0.2-1.3-2.4-1.4-5.8-0.1-3 0-5.7 0.3-6.1 0.2-0.5 0.8-0.8 1.3-0.8zm4 0h4c3 0 4.4 0.5 5.5 2.3 0.8 1.2 1.5 3.3 1.5 4.7 0 1.4-0.8 3.3-1.8 4.3-1 1.1-3.1 1.8-9.2 1.7v-6.5zm21.3 0c2.7 0 2.7 0.1 2.7 6.5 0 3.7-0.4 6.5-1 6.5-0.5 0-1-2.1-1-4.7 0-3.2-0.6-5.4-1.8-6.6-1.6-1.7-1.6-1.8 1.1-1.7zm12.2 0c1.9 0 3.5 0.5 3.5 1 0 0.5-0.9 1-2 1-1.1 0-2 0.3-2 0.8 0 0.4 1 1.2 2.2 1.7 1.8 0.8 2.3 1.8 2.3 4.5 0 3.3-0.2 3.5-3.4 3.5-1.9 0-3.6-0.6-3.8-1.2-0.2-0.9 0.4-1.1 2.3-0.5 2.4 0.6 2.6 0.5 2.3-1.8-0.3-1.9-0.9-2.4-2.6-2.2-2 0.2-2.3-0.3-2.3-3.3 0-3.3 0.2-3.5 3.5-3.5zm10.7 0c1.3 0 2.9 0.5 3.6 1.2 0.7 0.7 1.2 3.1 1.2 5.3 0 2.2-0.5 4.6-1.2 5.3-0.7 0.6-2 1.2-3 1.2-1 0-1.8-0.5-1.8-1 0-0.5 0.7-1 1.5-1 0.8 0 1.5-0.7 1.5-1.5 0-0.8-0.6-1.3-1.2-1-0.7 0.3-2.2-0.3-3.3-1.5-1.7-1.8-1.8-2.4-0.8-4.5 0.8-1.6 2.1-2.5 3.5-2.5zm12.3 0c2.5 0 4.5 0.5 4.5 1 0 0.5-0.9 2.5-2 4.3-1.1 1.7-2 4.2-2 5.5 0 1.2-0.5 2.2-1 2.2-0.5 0-1.2-0.5-1.5-1-0.3-0.5 0.2-2.7 1-4.7 0.9-2.1 1.5-4.1 1.5-4.5 0-0.5-1.1-0.8-2.5-0.8-1.4 0-2.5-0.5-2.5-1 0-0.5 2-1 4.5-1zm11 0c1.9 0 3.5 0.5 3.5 1 0 0.5-1.1 1-2.5 1-1.4 0-2.5 0.5-2.5 1 0 0.5 1 1.1 2.1 1.3 1.2 0.1 2.6 0.9 3.2 1.7 0.5 0.8 0.7 2.7 0.3 4.3-0.5 2.3-1 2.7-3.8 2.5-1.7-0.2-3.3-0.9-3.5-1.5q-0.3-1.3 2-0.7 2.2 0.6 3-1c0.4-0.9 0.2-2-0.5-2.6-0.7-0.6-2.1-0.8-3-0.5-1.5 0.4-1.8-0.1-1.8-3 0-3.3 0.2-3.5 3.5-3.5zm10.5 0c1.1 0 2.7 0.2 3.5 0.5 1.1 0.4 1.5 2 1.5 6 0 4-0.4 5.6-1.5 6-0.8 0.3-2.4 0.5-3.5 0.5-1.1 0-2.5-0.9-3-2-0.5-1.1-1-3.2-1.1-4.6 0-1.4 0.4-3.4 1-4.5 0.7-1 2-1.9 3.1-1.9zm12 0c1.1 0 2.2 0.5 2.3 1 0.2 0.5-0.4 1-1.5 1-1 0-1.8 0.5-1.8 1 0 0.5 1 1.1 2.1 1.3 1.2 0.1 2.6 0.9 3.2 1.7 0.5 0.8 0.7 2.7 0.3 4.3-0.5 2.2-1.1 2.7-3.6 2.7-1.7 0-3.7-0.7-4.5-1.5-0.8-0.8-1.5-2.7-1.6-4.3-0.1-1.5 0.6-3.8 1.6-5 0.9-1.2 2.5-2.2 3.5-2.2zm10.3 0c2.7 0 2.7 0.1 2.7 6.5 0 3.7-0.4 6.5-1 6.5-0.5 0-1-2.1-1-4.7 0-3.2-0.6-5.4-1.8-6.6-1.6-1.7-1.6-1.8 1.1-1.7zm12.9 0c1 0 1.8 0.5 1.8 1 0 0.5-0.7 1-1.5 1-0.8 0-1.5 0.5-1.5 1 0 0.5 1 1.1 2.2 1.3 1.9 0.2 2.3 0.9 2.5 4 0.3 3.1-0.1 3.8-2 4.3-1.2 0.4-3 0.4-4 0-1.2-0.4-1.8-1.9-1.9-5.4-0.1-3.1 0.3-5.2 1.2-6 0.8-0.7 2.2-1.2 3.2-1.2zm36.8 0c0.6 0 1.6 1.5 2.4 3.3 0.7 1.7 1.8 4.5 2.5 6.2 0.6 1.7 0.9 3.2 0.6 3.5-0.3 0.3-1.3-0.3-2.2-1.2-1-1-2.6-1.8-3.5-1.8-1 0-2 0.7-2.3 1.5-0.3 0.8-1.1 1.5-1.7 1.5-0.9 0-1.1-0.8-0.6-2.7 0.4-1.6 1.4-4.5 2.2-6.5 0.9-2.1 2.1-3.8 2.6-3.8zm8.8 1c0.4 0 1.2 0.5 1.9 1.2 0.9 1 0.9 1.8 0 3.6-0.9 1.8-0.9 2.8 0.1 4.3 0.6 1 1 2.2 0.7 2.7-0.3 0.4-1 0.4-1.7 0.1-0.7-0.3-1.6-2.7-2-5.3-0.5-2.5-0.6-5.1-0.3-5.6 0.4-0.5 0.9-1 1.3-1zm-29.4 2c0.1 0 0 1.3-0.1 3-0.3 2.5 0.1 3 1.9 3q2.2 0 1.2 1c-0.5 0.6-1.7 0.8-2.6 0.5-1-0.3-2-1.4-2.3-2.5-0.3-1.1 0-2.7 0.6-3.5 0.6-0.8 1.2-1.5 1.3-1.5zm39.6 0.1c0.3 0 1 0.3 1.6 0.7 0.6 0.4 1.4 2.6 2.4 9.2h-4.5c-4.1 0-4.5-0.2-4.5-2.5 0-1.9 0.6-2.6 2.5-3 1.4-0.3 2.5-1 2.5-1.5 0-0.5-0.9-0.8-2-0.5-1.1 0.3-2.1 0.1-2.2-0.4-0.2-0.5 0.6-1.2 1.7-1.4 1.1-0.3 2.2-0.5 2.5-0.6zm19.2 0.5c0.6 0.3 1 2.5 0.9 5-0.1 3.2-0.5 4.4-1.6 4.4-1.1 0-1.5-1.2-1.7-4.3-0.1-2.4 0.2-4.7 0.6-5 0.5-0.4 1.3-0.4 1.8-0.1zm13.6-0.6c0.7 0 1.8 1.2 3.7 5.1l1.2-2.5c0.7-1.4 1.9-2.4 2.5-2.1 0.9 0.4 0.7 2.1-1 6.5-1.2 3.3-2.9 6.3-3.7 6.8-0.8 0.4-1.9 0.3-2.3-0.1-0.4-0.4-0.2-1.1 0.5-1.5 0.8-0.5 0.9-2 0.3-4.7-0.4-2.2-1.1-4.8-1.5-5.7-0.5-1.2-0.4-1.8 0.3-1.8zm11.1 0c0.6 0 1.2 1.7 1.3 3.8 0.2 2.5 0.8 3.7 1.8 3.7 1 0 1.6-1.1 1.8-3.2 0.1-2.2 0.7-3.3 1.7-3.3 1.1 0 1.5 1.2 1.5 9l-8.5-0.5-0.3-4.7c-0.2-2.9 0.1-4.8 0.7-4.8zm13.2 0c0.5 0 1.6 0.2 2.4 0.5 0.8 0.3 1.5 1 1.5 1.5 0 0.5-0.9 0.8-2 0.5-1.1-0.3-2-0.2-2 0.3 0 0.4 1.1 1.3 2.5 2 1.5 0.7 2.4 1.9 2.2 3-0.2 1.2-1.2 1.7-3.6 1.7-1.9 0-3.6-0.6-3.8-1.2-0.2-0.9 0.5-1.1 5.2-0.1l-3-2.5c-2.6-2.1-2.8-2.7-1.6-4.1 0.7-0.9 1.7-1.6 2.2-1.6zm9.4 3.9c0.5 2.3 1.6 4.1 2.3 4.1 0.7 0 1.4-1.8 1.7-4 0.3-2.2 1-4 1.5-4 0.5 0 1 2.3 1 10h-4q-4 0-4.5-1.5c-0.3-0.8-0.6-2.8-0.7-4.3-0.1-1.6 0.3-3.2 0.8-3.6 0.5-0.5 1.3 1 1.9 3.3zm28.5-3.9c0.6 0 1 0.8 1.1 1.8 0.1 0.9 0 3.3-0.1 5.2-0.1 1.9-0.6 4.3-1.1 5.3-0.5 0.9-1.6 1.7-2.4 1.7-1.3 0-1.3-0.3-0.1-2.7 0.9-1.9 1.2-3.7 0.6-5.3-0.4-1.4-0.4-3.3 0.1-4.2 0.6-1 1.4-1.8 1.9-1.8zm5.2 0.6c0.6 0.3 1 2.1 0.9 4-0.1 2.4 0.3 3.4 1.4 3.4 1 0 1.8-1.4 2.3-4 0.4-2.2 1-4 1.5-4 0.4 0 0.7 2.3 0.7 5 0 5 0 5-3.3 5-1.7 0-3.8-0.5-4.5-1.2-0.7-0.7-1.3-2.7-1.4-4.4-0.1-1.7 0.2-3.4 0.6-3.7 0.5-0.4 1.3-0.4 1.8-0.1zm15.6-0.5l3.3 0.2c1.9 0.1 4 0.6 4.7 1 0.6 0.4 1.2 2.5 1.2 4.7 0 2.7-0.4 3.9-1.2 3.7-0.7-0.2-1.5-1.8-1.8-3.6-0.3-1.7-1-3.2-1.5-3.2-0.5 0-1.2 1.4-1.5 3.1-0.3 1.7-1 3.2-1.5 3.3-0.5 0.1-1.2-1.9-1.4-4.5zm13.4-0.1c0.5 0 0.9 2.2 0.9 5 0 3.8-0.4 5-1.5 5-1.1 0-1.6-1.2-1.7-4.3-0.1-2.4 0.2-4.7 0.7-5 0.4-0.4 1.2-0.7 1.6-0.7zm-967.3 13c0.9 0 2 0.2 2.4 0.6 0.4 0.3 0.5 1.2 0.2 2-0.2 0.8-1.3 1.4-2.4 1.4-1.1 0-2.3-0.5-2.5-1-0.3-0.6-0.3-1.5 0-2 0.3-0.6 1.3-1 2.3-1z"/>
		<path id="Path 3" class="s2" d="m558 112c3.5 0 6.4 0.6 8 1.6 1.4 1 3.8 2.9 5.3 4.3 1.6 1.4 3.6 3.9 4.4 5.6 0.9 1.7 1.6 5.3 1.6 8 0 3.1-1.2 8.2-3.2 13.5-1.8 4.7-4.8 11.9-6.7 16-1.8 4.1-3.4 7.8-3.4 8.3 0 0.4-3.8 8.7-8.4 18.4-4.7 9.8-12.4 25-17.2 33.8-4.8 8.8-10.2 18.4-12 21.3-1.9 2.8-3.4 5.6-3.4 6.2 0 0.6-0.5 1-1 1-0.5 0-1 0.4-1 1 0 0.6-1.3 2.9-2.9 5.3-1.5 2.3-4.5 6.9-6.6 10.2-2.1 3.3-4.4 6.9-5.1 8-0.8 1.1-4.2 6.3-7.7 11.5-3.5 5.2-7.1 10.4-8 11.5-0.9 1.1-2.7 3.5-3.9 5.2-1.3 1.8-7.2 9.7-13.2 17.5-6 7.9-13.2 17-16 20.3-2.9 3.3-6.2 7.4-7.5 9-1.2 1.6-4.9 5.9-8.1 9.5-3.2 3.6-9.5 10.8-14 16-4.5 5.2-14.8 16.5-22.8 25-8.1 8.5-21.2 22-29.2 30-8 8-25.3 25.1-38.5 37.9-13.2 12.9-26.5 26.3-29.5 29.7-3 3.4-10.6 11.7-16.9 18.5-6.2 6.8-13.8 16-16.9 20.4-3.1 4.4-7.4 11.3-9.4 15.3-3 5.7-3.8 8.3-3.8 12.5 0.1 2.8 0.6 6.2 1.3 7.4 0.7 1.2 2.9 4 4.9 6.2 2.1 2.3 6.4 5.7 9.5 7.7 3.2 2 9.2 5.4 13.3 7.4 4.1 2.1 13.6 5.7 21 8 7.4 2.3 16.1 5.1 19.2 6.1 3.2 1 6.6 1.9 7.5 1.9 1 0 5.2 0.9 9.3 2 4.1 1.1 11.1 2.9 15.5 4 4.4 1.1 9.6 2.6 11.5 3.4 1.9 0.8 8.7 3.6 15 6.2 6.8 2.8 15.2 7.3 20.5 10.9 5 3.4 10.7 8.3 12.7 10.9 2.1 2.5 3.8 4.8 3.8 5.1 0 0.3 1.1 2.2 2.5 4.3 1.3 2 3.2 6.6 4.1 10.2 0.9 3.6 1.9 9.2 2.2 12.5 0.3 4.7 0 6.9-1.6 10-1.1 2.2-3.1 5.1-4.4 6.5-1.4 1.4-4.3 3.1-6.4 3.7-2.1 0.7-5.7 1.3-7.9 1.3-2.5 0-5.9-1.1-9-2.8-3.7-2-5.6-3.9-7.3-7.2-1.2-2.5-2.5-6.8-3-9.6-0.4-2.8-1.4-5.9-2.2-6.9-0.8-1-3.9-3.5-6.8-5.7-2.8-2.1-7.6-4.9-10.5-6.2-2.8-1.2-8.6-3.3-12.7-4.6-4.1-1.2-12.2-3.5-18-5.1-5.8-1.6-15.2-4.1-21-5.5-5.8-1.4-17-4.8-25-7.4-8-2.7-17.2-6-20.5-7.5-3.3-1.4-8.3-3.8-11-5.2-2.8-1.5-7.5-4.2-10.5-6.1-3-1.9-8.4-5.9-12-8.7-3.6-2.9-8.6-7.9-11.1-11.1-2.5-3.3-5.8-8.3-7.3-11.1-1.4-2.9-3.3-8.4-4.1-12.3-0.8-3.9-1.5-9.2-1.5-12 0-2.7 0.7-8.3 1.5-12.2 0.9-4 2.7-10.2 4.1-13.8 1.4-3.6 5.4-10.9 8.8-16.2 3.3-5.4 9.2-13.7 13.1-18.5 3.9-4.8 12-14.2 18.1-20.8 6.2-6.6 18.3-19.2 27.1-28 8.7-8.8 22.8-22.8 31.3-31.1 8.5-8.3 18-17.7 21.1-21 3.1-3.2 7.2-7.3 9-9 1.9-1.7 7.9-7.8 13.4-13.6 5.5-5.7 14.5-15.3 20.1-21.4 5.5-6 13.9-15.2 18.5-20.4 4.7-5.2 11.4-13.1 15-17.5 3.5-4.4 7.2-8.9 8.2-10 1-1.1 4.6-5.5 8-9.8 3.4-4.4 8.1-10.4 10.4-13.5 2.3-3.2 9.5-13.3 16-22.7 6.5-9.4 15.2-22.3 19.3-28.8 4.1-6.4 8.2-13 9-14.5 0.9-1.5 4.1-7.2 7.1-12.7 3.1-5.5 8.1-14.9 11.2-21 3-6.1 8.2-16.9 11.5-24 3.3-7.1 6.9-15.1 8.1-17.7 1.1-2.7 2.1-5 2.1-5.3 0-0.3 1.6-4.6 3.5-9.5 1.9-4.9 4.5-10.4 5.7-12.1 1.2-1.7 4-4.2 6.3-5.5 2.9-1.7 5.5-2.4 9.5-2.4z"/>
		<path id="Path 4" class="s1" d="m737.1 965c1 0 2.3 1 2.8 2.3 0.4 1.2 0.5 3.1 0.1 4.2-0.4 1.1-1.6 2.1-2.6 2.3q-1.9 0.3-2.6-2c-0.4-1.3-0.5-3.3-0.2-4.5 0.4-1.4 1.4-2.3 2.5-2.3zm74.2 0.2c0.7 0.3 1.2 2.2 1.2 4.4 0 2.6-0.5 4-1.5 4.2-0.9 0.2-1.7-0.7-2.1-2-0.3-1.3-0.2-3.4 0.3-4.6 0.5-1.3 1.5-2.2 2.1-2zm-710.8 1.8c1.5 0 2.9 0.8 3.5 2 0.5 1.1 1 3 1 4.2 0 1.3-0.4 2.8-0.8 3.4-0.4 0.6-1.7 1.4-3 1.8-1.4 0.4-2.8 0-3.7-0.9-0.8-0.8-1.5-2.7-1.6-4.1 0-1.4 0.4-3.4 1-4.5 0.7-1.1 2.2-1.9 3.6-1.9zm811.7 1.6c0.6 0.3 1 1.6 0.9 3-0.1 1.4-0.7 2.4-1.6 2.4-0.8 0-1.5-0.7-1.5-1.5 0-0.8 0.3-2.2 0.6-3 0.4-0.8 1.1-1.2 1.6-0.9zm75.1-0.3c0.7 0.2 1.2 1.4 1.2 2.7 0 1.3-0.6 2.5-1.3 2.7-0.6 0.1-1.5-0.5-1.8-1.5-0.3-0.9-0.3-2.3 0.1-3 0.4-0.8 1.2-1.2 1.8-0.9zm-165 0.9c0.7 0.3 1.3 1.4 1.4 2.6 0.2 1.4-0.3 2.2-1.2 2.2-0.8 0-1.7-0.5-2-1-0.3-0.5-0.2-1.7 0.1-2.6 0.3-0.9 1.1-1.4 1.7-1.2zm23.1 0.1c0.6 0.2 1.1 1.2 1.1 2.3 0 1-0.8 2-1.8 2.1-1 0.2-1.8-0.4-1.9-1.5-0.1-1 0.2-2.2 0.7-2.6 0.5-0.3 1.3-0.5 1.9-0.3z"/>
	</g>
</svg>